HIERARCHY
ROOT Hips
{
	OFFSET 0.000000 0.000000 0.000000
	CHANNELS 6 Xposition Yposition Zposition Zrotation Yrotation Xrotation 
	JOINT LHipJoint
	{
		OFFSET 0.000000 0.000000 0.000000
		CHANNELS 3 Zrotation Yrotation Xrotation
		JOINT LeftUpLeg
		{
			OFFSET 1.363060 -1.794630 0.839290
			CHANNELS 3 Zrotation Yrotation Xrotation
			JOINT LeftLeg
			{
				OFFSET 2.448110 -6.726130 0.000000
				CHANNELS 3 Zrotation Yrotation Xrotation
				JOINT LeftFoot
				{
					OFFSET 2.562200 -7.039590 0.000000
					CHANNELS 3 Zrotation Yrotation Xrotation
					JOINT LeftToeBase
					{
						OFFSET 0.157640 -0.433110 2.322550
						CHANNELS 3 Zrotation Yrotation Xrotation
						End Site
						{
							OFFSET 0.000000 0.000000 0.000000
						}
					}
				}
			}
		}
	}
	JOINT RHipJoint
	{
		OFFSET 0.000000 0.000000 0.000000
		CHANNELS 3 Zrotation Yrotation Xrotation
		JOINT RightUpLeg
		{
			OFFSET -1.305520 -1.794630 0.839290
			CHANNELS 3 Zrotation Yrotation Xrotation
			JOINT RightLeg
			{
				OFFSET -2.542530 -6.985550 0.000000
				CHANNELS 3 Zrotation Yrotation Xrotation
				JOINT RightFoot
				{
					OFFSET -2.568260 -7.056230 0.000000
					CHANNELS 3 Zrotation Yrotation Xrotation
					JOINT RightToeBase
					{
						OFFSET -0.164730 -0.452590 2.363150
						CHANNELS 3 Zrotation Yrotation Xrotation
						End Site
						{
							OFFSET 0.000000 0.000000 0.000000
						}
					}
				}
			}
		}
	}
	JOINT LowerBack
	{
		OFFSET 0.000000 0.000000 0.000000
		CHANNELS 3 Zrotation Yrotation Xrotation
		JOINT Spine
		{
			OFFSET 0.028270 2.035590 -0.193380
			CHANNELS 3 Zrotation Yrotation Xrotation
			JOINT Spine1
			{
				OFFSET 0.056720 2.048850 -0.042750
				CHANNELS 3 Zrotation Yrotation Xrotation
				JOINT Neck
				{
					OFFSET 0.000000 0.000000 0.000000
					CHANNELS 3 Zrotation Yrotation Xrotation
					JOINT Neck1
					{
						OFFSET -0.054170 1.746240 0.172020
						CHANNELS 3 Zrotation Yrotation Xrotation
						JOINT Head
						{
							OFFSET 0.104070 1.761360 -0.123970
							CHANNELS 3 Zrotation Yrotation Xrotation
							End Site
							{
								OFFSET 0.000000 0.000000 0.000000
							}
						}
					}
				}
				JOINT LeftShoulder
				{
					OFFSET 0.000000 0.000000 0.000000
					CHANNELS 3 Zrotation Yrotation Xrotation
					JOINT LeftArm
					{
						OFFSET 3.362410 1.200890 -0.311210
						CHANNELS 3 Zrotation Yrotation Xrotation
						JOINT LeftForeArm
						{
							OFFSET 4.983000 -0.000000 -0.000000
							CHANNELS 3 Zrotation Yrotation Xrotation
							JOINT LeftHand
							{
								OFFSET 3.483560 -0.000000 -0.000000
								CHANNELS 3 Zrotation Yrotation Xrotation
								JOINT LeftFingerBase
								{
									OFFSET 0.000000 0.000000 0.000000
									CHANNELS 3 Zrotation Yrotation Xrotation
									JOINT LeftHandIndex1
									{
										OFFSET 0.715260 -0.000000 -0.000000
										CHANNELS 3 Zrotation Yrotation Xrotation
										End Site
										{
											OFFSET 0.000000 0.000000 0.000000
										}
									}
								}
								JOINT LThumb
								{
									OFFSET 0.000000 0.000000 0.000000
									CHANNELS 3 Zrotation Yrotation Xrotation
									End Site
									{
										OFFSET 0.000000 0.000000 0.000000
									}
								}
							}
						}
					}
				}
				JOINT RightShoulder
				{
					OFFSET 0.000000 0.000000 0.000000
					CHANNELS 3 Zrotation Yrotation Xrotation
					JOINT RightArm
					{
						OFFSET -3.136600 1.374050 -0.404650
						CHANNELS 3 Zrotation Yrotation Xrotation
						JOINT RightForeArm
						{
							OFFSET -5.241900 -0.000000 -0.000000
							CHANNELS 3 Zrotation Yrotation Xrotation
							JOINT RightHand
							{
								OFFSET -3.444170 -0.000000 -0.000000
								CHANNELS 3 Zrotation Yrotation Xrotation
								JOINT RightFingerBase
								{
									OFFSET 0.000000 0.000000 0.000000
									CHANNELS 3 Zrotation Yrotation Xrotation
									JOINT RightHandIndex1
									{
										OFFSET -0.622530 -0.000000 -0.000000
										CHANNELS 3 Zrotation Yrotation Xrotation
										End Site
										{
											OFFSET 0.000000 0.000000 0.000000
										}
									}
								}
								JOINT RThumb
								{
									OFFSET 0.000000 0.000000 0.000000
									CHANNELS 3 Zrotation Yrotation Xrotation
									End Site
									{
										OFFSET 0.000000 0.000000 0.000000
									}
								}
							}
						}
					}
				}
			}
		}
	}
}
MOTION
Frames: 10
Frame Time: 0.008333
10.177946 17.871138 20.584425 -179.050480 -1.645115 -152.197215 9.418883 1.200835 -1.907240 -22.795503 -19.231296 -18.969546 -1.224953 4.379199 9.301655 0.436442 -2.968414 -16.064566 5.386800 -13.806600 -42.468000 -13.906672 -2.833213 -1.145294 31.598960 19.799452 -19.068744 1.195178 -4.221844 8.601938 -0.902373 1.543320 -19.625003 -3.108600 10.868800 -31.838800 -2.766560 0.508466 -26.450350 1.655395 -0.605048 -5.951167 -0.221556 -1.305941 12.095033 -11.747805 0.919193 -1.580670 12.957677 -2.125867 17.090167 2.982100 -0.414700 2.927500 15.439358 -2.060081 0.590179 -106.949671 -5.940713 21.542164 10.089235 -10.066896 -1.175000 -1.730860 1.533331 11.994753 21.134046 -11.086508 -5.144100 -7.125000 0.000000 0.000000 -2.831500 16.803000 1.894400 -10.710429 -0.123092 0.031863 100.139843 1.777680 1.227722 -9.992679 18.426011 -2.174057 1.174921 3.410023 8.727348 -10.489572 -40.712116 7.818200 7.125000 0.000000 0.000000 41.483300 -70.795900 -26.961900 
10.178384 17.872780 20.583002 -179.023389 -1.638418 -152.239805 9.419545 1.207868 -1.911006 -22.796028 -19.158735 -18.912209 -1.224714 4.361021 9.273889 0.434411 -2.948026 -15.995527 5.606600 -14.036000 -43.381700 -13.908945 -2.830367 -1.141810 31.621236 19.894955 -18.930930 1.195137 -4.183068 8.524015 -0.903393 1.605872 -19.620400 -2.956400 10.624100 -31.022200 -2.771882 0.549520 -26.377331 1.642052 -0.545575 -5.949887 -0.221098 -1.276057 12.048443 -11.678779 0.895909 -1.511926 12.954348 -2.175742 17.077687 2.959200 -0.439900 2.909600 15.443935 -2.060999 0.589459 -106.947567 -5.891137 21.649420 10.113458 -10.111585 -1.184546 -1.696393 1.513423 11.900858 20.809410 -11.054962 -5.038900 -7.125000 0.000000 0.000000 -3.083000 16.879800 2.058000 -10.712237 -0.128521 0.032244 100.181711 1.727663 1.172455 -10.013224 18.457032 -2.182100 1.172305 3.416416 8.646594 -10.519727 -40.793268 7.852500 7.125000 0.000000 0.000000 41.635100 -70.866400 -27.132100 
10.177399 17.872014 20.581470 -179.002670 -1.670237 -152.218557 9.421130 1.204763 -1.915582 -22.778054 -19.146919 -18.929248 -1.224309 4.364939 9.282130 0.433431 -2.936941 -15.968135 5.786300 -14.218000 -44.118000 -13.912774 -2.824311 -1.135998 31.619723 19.985902 -18.896918 1.200193 -4.168081 8.481439 -0.910845 1.557366 -19.696348 -2.897000 10.526500 -30.699000 -2.718410 0.551585 -26.382575 1.646995 -0.557474 -5.944717 -0.242962 -1.279643 12.071565 -11.720052 0.889094 -1.549234 12.961184 -2.175141 17.081994 2.974400 -0.439700 2.920500 15.442250 -2.060776 0.587374 -106.981254 -5.896816 21.718684 10.137877 -10.151330 -1.192980 -1.666787 1.495574 11.728081 20.509410 -11.050923 -4.953800 -7.125000 0.000000 0.000000 -3.316600 16.920300 2.211500 -10.715151 -0.127036 0.031550 100.167393 1.772909 1.194028 -10.012727 18.456919 -2.182343 1.171297 3.421336 8.663445 -10.486125 -40.871645 7.838200 7.125000 0.000000 0.000000 41.850800 -70.912000 -27.327400 
10.175976 17.870044 20.578953 -179.009952 -1.684937 -152.194894 9.421809 1.202823 -1.916236 -22.796618 -19.172547 -18.931031 -1.224907 4.375275 9.306458 0.439643 -2.930469 -16.035539 5.843400 -14.274800 -44.349900 -13.912060 -2.825274 -1.138408 31.631664 19.965649 -18.920294 1.207296 -4.176012 8.494971 -0.913728 1.362012 -19.728096 -3.073400 10.812900 -31.651400 -2.700503 0.552999 -26.428151 1.640751 -0.555253 -5.933757 -0.271542 -1.278962 12.123994 -11.720872 0.887639 -1.546183 12.960740 -2.179690 17.092252 2.975800 -0.442100 2.920200 15.445062 -2.063188 0.590241 -106.967000 -5.919092 21.788214 10.132073 -10.134453 -1.188038 -1.745571 1.514531 11.674560 21.173527 -11.071187 -5.144000 -7.125000 0.000000 0.000000 -2.799800 16.826900 1.871700 -10.721234 -0.130120 0.032437 100.180982 1.793730 1.248782 -10.032645 18.491054 -2.190525 1.168022 3.423856 8.674270 -10.437904 -40.928923 7.809000 7.125000 0.000000 0.000000 42.032600 -70.935600 -27.479400 
10.175976 17.870700 20.578296 -179.027958 -1.678933 -152.229232 9.416552 1.204525 -1.911093 -22.807327 -19.244220 -18.854134 -1.225581 4.379459 9.328083 0.449078 -2.918069 -16.123513 5.694600 -14.125700 -43.743400 -13.912696 -2.830813 -1.146220 31.651068 19.911288 -18.894102 1.210076 -4.178424 8.512933 -0.913336 1.229954 -19.715166 -3.232100 11.061600 -32.488100 -2.712349 0.510812 -26.396099 1.659625 -0.600907 -5.921987 -0.241511 -1.298264 12.164327 -11.756807 0.899929 -1.553005 12.959984 -2.160387 17.102127 2.983100 -0.432600 2.922500 15.438459 -2.068095 0.593535 -107.014691 -5.963193 21.617814 10.118657 -10.116583 -1.185766 -1.677086 1.508656 11.734431 20.604745 -11.110700 -5.008100 -7.125000 0.000000 0.000000 -3.244300 16.835600 2.169100 -10.715286 -0.125266 0.033146 100.125446 1.818606 1.388675 -10.049585 18.513829 -2.195894 1.159774 3.425674 8.659316 -10.335767 -40.929644 7.731100 7.125000 0.000000 0.000000 42.146600 -70.899700 -27.530900 
10.175100 17.871357 20.577858 -179.073077 -1.678549 -152.248397 9.414294 1.201711 -1.907667 -22.844991 -19.311889 -18.811577 -1.225158 4.385183 9.346353 0.452496 -2.923581 -16.171758 5.478900 -13.903600 -42.852500 -13.915851 -2.822384 -1.141348 31.547141 20.018785 -18.828913 1.209581 -4.156954 8.466011 -0.914391 1.255683 -19.719585 -3.073800 10.813500 -31.653400 -2.745943 0.453814 -26.320697 1.677830 -0.665407 -5.931734 -0.210728 -1.328113 12.120579 -11.803660 0.906242 -1.580681 12.948705 -2.138294 17.107726 2.990800 -0.422000 2.934200 15.435027 -2.065765 0.592134 -107.088696 -5.963327 21.238476 10.113110 -10.106327 -1.181281 -1.702666 1.537456 12.027635 20.919767 -11.173138 -5.124400 -7.125000 0.000000 0.000000 -3.003000 16.723000 2.014700 -10.711689 -0.117100 0.030329 100.071463 1.797354 1.539422 -10.060562 18.528276 -2.199518 1.157866 3.424815 8.649110 -10.313480 -40.900335 7.710300 7.125000 0.000000 0.000000 42.104600 -70.870900 -27.475300 
10.173239 17.871357 20.576764 -179.113663 -1.697725 -152.233241 9.418490 1.197728 -1.906993 -22.896332 -19.335844 -18.827562 -1.226265 4.383791 9.335126 0.454280 -2.887655 -16.140778 5.518000 -13.944400 -43.015100 -13.918503 -2.810520 -1.130397 31.426543 20.162642 -18.788560 1.209762 -4.140958 8.422840 -0.915363 1.275329 -19.729750 -2.877200 10.493500 -30.590200 -2.772295 0.437532 -26.264066 1.675325 -0.684941 -5.956811 -0.221291 -1.338379 12.018603 -11.799851 0.904687 -1.572953 12.940491 -2.138595 17.104473 2.987900 -0.423000 2.937400 15.431810 -2.060935 0.590182 -107.099649 -5.920390 21.014744 10.080872 -10.052040 -1.169852 -1.731504 1.562467 12.315112 21.240142 -11.181887 -5.219900 -7.125000 0.000000 0.000000 -2.754000 16.671100 1.850300 -10.713957 -0.115184 0.025896 100.084858 1.720250 1.568368 -10.077702 18.556365 -2.206676 1.161636 3.428303 8.643756 -10.368453 -40.965125 7.761200 7.125000 0.000000 0.000000 42.193600 -70.937700 -27.598100 
10.172802 17.871466 20.575450 -179.070112 -1.688447 -152.187257 9.424398 1.192755 -1.903407 -22.827809 -19.455824 -18.795373 -1.238991 4.336848 9.202871 0.476803 -2.673863 -16.085018 5.530800 -13.957700 -43.068100 -13.925930 -2.810565 -1.125925 31.507309 20.177060 -18.818405 1.214424 -4.140691 8.407289 -0.912513 1.196560 -19.712293 -2.992800 10.683300 -31.219100 -2.731186 0.458015 -26.293852 1.683755 -0.685728 -5.970902 -0.225085 -1.338231 11.987057 -11.805948 0.907512 -1.567533 12.940162 -2.135099 17.101225 2.989200 -0.422000 2.936700 15.426202 -2.061303 0.590586 -107.116665 -5.925145 20.894769 10.037691 -9.978717 -1.156250 -1.732343 1.575271 12.459433 21.271014 -11.186569 -5.234300 -7.125000 0.000000 0.000000 -2.728500 16.654600 1.834200 -10.710749 -0.114036 0.023160 100.062948 1.691714 1.607088 -10.085551 18.568964 -2.209924 1.158672 3.437139 8.584599 -10.370325 -41.071585 7.777700 7.125000 0.000000 0.000000 42.440400 -71.016500 -27.846300 
10.172036 17.871904 20.574793 -179.097587 -1.700373 -152.170768 9.431859 1.189602 -1.892043 -22.836919 -19.658689 -18.734653 -1.249011 4.304334 9.105063 0.497259 -2.487512 -16.047896 5.598300 -14.027400 -43.347200 -13.925576 -2.814131 -1.134928 31.512200 20.104973 -18.809129 1.220210 -4.115397 8.347303 -0.911380 1.057502 -19.697029 -3.127600 10.898800 -31.939500 -2.758357 0.452606 -26.299412 1.675531 -0.682371 -5.974007 -0.239169 -1.337518 11.976800 -11.784870 0.910563 -1.547075 12.940843 -2.137868 17.097698 2.984000 -0.423500 2.930300 15.424817 -2.063613 0.591938 -107.099009 -5.937663 20.877553 10.014631 -9.941303 -1.150196 -1.736541 1.595656 12.522745 21.347009 -11.294607 -5.307500 -7.125000 0.000000 0.000000 -2.675300 16.512700 1.806500 -10.712680 -0.114444 0.023501 100.091177 1.679107 1.548712 -10.089839 18.575389 -2.211228 1.156278 3.433915 8.604309 -10.328612 -41.033524 7.740100 7.125000 0.000000 0.000000 42.395800 -70.973200 -27.775900 
10.171926 17.871466 20.574246 -179.147174 -1.672296 -152.148710 9.432298 1.188539 -1.900857 -22.898028 -19.529982 -18.824749 -1.236112 4.339229 9.192741 0.463232 -2.745407 -16.040753 5.525300 -13.952000 -43.045300 -13.923867 -2.801966 -1.125638 31.380242 20.224440 -18.823276 1.219014 -4.114257 8.331816 -0.911868 1.098292 -19.710044 -2.967600 10.642500 -31.083400 -2.831010 0.453584 -26.315885 1.657280 -0.652158 -5.973015 -0.237322 -1.329110 11.975577 -11.759067 0.909424 -1.545098 12.943461 -2.141044 17.088173 2.977900 -0.424300 2.926300 15.428188 -2.064234 0.591931 -107.061163 -5.935921 20.990228 10.015419 -9.945061 -1.151988 -1.738941 1.603420 12.480692 21.379073 -11.370804 -5.351600 -7.125000 0.000000 0.000000 -2.655100 16.418400 1.798300 -10.720082 -0.118545 0.023027 100.163756 1.617121 1.485224 -10.143455 18.659682 -2.232005 1.156707 3.436388 8.638043 -10.328602 -41.112864 7.749800 7.125000 0.000000 0.000000 42.577500 -71.028900 -27.957100 
